<svg width="30" height="28" viewBox="0 0 30 28" fill="none" xmlns="http://www.w3.org/2000/svg"><path d="M2.53143 9.105C2.04143 9.105 1.61643 9.03 1.25643 8.88C0.896426 8.73 0.621426 8.465 0.431426 8.085C0.251426 7.705 0.161426 7.17 0.161426 6.48V5.97C0.401426 5.97 0.646426 5.97 0.896426 5.97C1.14643 5.97 1.39143 5.97 1.63143 5.97V6.6C1.63143 7.02 1.67143 7.345 1.75143 7.575C1.83143 7.805 1.94143 7.965 2.08143 8.055C2.22143 8.135 2.38143 8.175 2.56143 8.175C2.85143 8.175 3.08143 8.08 3.25143 7.89C3.43143 7.69 3.52143 7.32 3.52143 6.78C3.52143 6.38 3.46143 6.08 3.34143 5.88C3.22143 5.68 3.03143 5.52 2.77143 5.4C2.52143 5.27 2.19643 5.125 1.79643 4.965C1.46643 4.815 1.18143 4.64 0.941426 4.44C0.701426 4.24 0.521426 3.985 0.401426 3.675C0.281426 3.365 0.221426 2.98 0.221426 2.52C0.221426 1.96 0.291426 1.505 0.431426 1.155C0.581426 0.795 0.831426 0.535 1.18143 0.374999C1.53143 0.205 2.00143 0.12 2.59143 0.12C3.35143 0.12 3.93143 0.295 4.33143 0.644999C4.73143 0.985 4.93143 1.485 4.93143 2.145V3.18C4.70143 3.18 4.46643 3.18 4.22643 3.18C3.99643 3.18 3.76143 3.18 3.52143 3.18V2.565C3.52143 2.105 3.44643 1.775 3.29643 1.575C3.15643 1.365 2.92643 1.26 2.60643 1.26C2.27643 1.26 2.03643 1.36 1.88643 1.56C1.74643 1.75 1.67643 2.055 1.67643 2.475C1.67643 2.835 1.74643 3.115 1.88643 3.315C2.02643 3.505 2.20643 3.655 2.42643 3.765C2.65643 3.875 2.89143 3.975 3.13143 4.065C3.58143 4.235 3.94643 4.41 4.22643 4.59C4.50643 4.77 4.71143 5.01 4.84143 5.31C4.97143 5.61 5.03643 6.035 5.03643 6.585C5.03643 7.215 4.93143 7.715 4.72143 8.085C4.52143 8.445 4.23143 8.705 3.85143 8.865C3.48143 9.025 3.04143 9.105 2.53143 9.105ZM8.84326 9.18C8.50326 9.18 8.18826 9.155 7.89826 9.105C7.60826 9.055 7.35826 8.955 7.14826 8.805C6.93826 8.655 6.77326 8.43 6.65326 8.13C6.53326 7.83 6.47326 7.425 6.47326 6.915V0.135H7.91326V7.29C7.91326 7.56 7.95326 7.77 8.03326 7.92C8.12326 8.06 8.23826 8.155 8.37826 8.205C8.51826 8.255 8.67326 8.28 8.84326 8.28C9.01326 8.28 9.16826 8.255 9.30826 8.205C9.44826 8.155 9.55826 8.06 9.63826 7.92C9.72826 7.77 9.77326 7.56 9.77326 7.29V0.135H11.1983V6.9C11.1983 7.41 11.1383 7.82 11.0183 8.13C10.9083 8.43 10.7483 8.655 10.5383 8.805C10.3283 8.955 10.0783 9.055 9.78826 9.105C9.49826 9.155 9.18326 9.18 8.84326 9.18ZM12.9706 9V0.135H15.9706C16.5306 0.135 16.9606 0.26 17.2606 0.509999C17.5606 0.76 17.7106 1.13 17.7106 1.62V3.195C17.7106 3.575 17.6606 3.93 17.5606 4.26C17.4706 4.58 17.2906 4.84 17.0206 5.04C16.7606 5.24 16.3806 5.34 15.8806 5.34H14.4706V9H12.9706ZM14.4706 4.53H15.3856C15.6856 4.53 15.9106 4.415 16.0606 4.185C16.2106 3.945 16.2856 3.56 16.2856 3.03V2.235C16.2856 1.765 16.2206 1.43 16.0906 1.23C15.9606 1.03 15.7806 0.929999 15.5506 0.929999H14.4706V4.53ZM19.13 9V0.135H23.12V1.155H20.63V3.84H22.685V4.965H20.63V8.01H23.12V9H19.13ZM24.4837 9V0.135H27.5437C28.1037 0.135 28.5337 0.26 28.8337 0.509999C29.1437 0.76 29.2987 1.13 29.2987 1.62V3.03C29.2987 3.52 29.1637 3.92 28.8937 4.23C28.6237 4.53 28.2237 4.695 27.6937 4.725C28.0337 4.755 28.2737 4.865 28.4137 5.055C28.5637 5.245 28.6987 5.54 28.8187 5.94L29.6737 9H28.0837L27.3787 6.045C27.3087 5.795 27.2287 5.575 27.1387 5.385C27.0487 5.195 26.9037 5.1 26.7037 5.1H25.9687V9H24.4837ZM25.9687 4.095H26.9287C27.2787 4.095 27.5237 4.005 27.6637 3.825C27.8137 3.645 27.8887 3.37 27.8887 3V1.875C27.8887 1.545 27.8187 1.305 27.6787 1.155C27.5487 1.005 27.3437 0.929999 27.0637 0.929999H25.9687V4.095ZM7.5576 27.165C7.2176 27.165 6.8976 27.11 6.5976 27C6.2976 26.9 6.0526 26.695 5.8626 26.385C5.6826 26.065 5.5926 25.59 5.5926 24.96V20.01C5.5926 19.47 5.6926 19.06 5.8926 18.78C6.0926 18.49 6.3726 18.295 6.7326 18.195C7.0926 18.085 7.5076 18.03 7.9776 18.03C8.4476 18.03 8.8626 18.085 9.2226 18.195C9.5826 18.305 9.8626 18.505 10.0626 18.795C10.2726 19.075 10.3776 19.48 10.3776 20.01V21.21H8.9826V19.95C8.9826 19.65 8.9376 19.425 8.8476 19.275C8.7676 19.125 8.6526 19.025 8.5026 18.975C8.3626 18.925 8.1926 18.9 7.9926 18.9C7.8126 18.9 7.6476 18.925 7.4976 18.975C7.3476 19.025 7.2276 19.125 7.1376 19.275C7.0576 19.425 7.0176 19.65 7.0176 19.95V25.275C7.0176 25.575 7.0576 25.8 7.1376 25.95C7.2276 26.1 7.3476 26.2 7.4976 26.25C7.6476 26.3 7.8126 26.325 7.9926 26.325C8.2826 26.325 8.5176 26.24 8.6976 26.07C8.8876 25.89 8.9826 25.625 8.9826 25.275V23.475H8.0976V22.65H10.3776V27H9.2976L9.2226 26.25C9.2026 26.29 9.1776 26.335 9.1476 26.385C9.1176 26.425 9.0926 26.46 9.0726 26.49C8.9526 26.67 8.7726 26.83 8.5326 26.97C8.3026 27.1 7.9776 27.165 7.5576 27.165ZM13.0985 27V23.19L11.4485 18.135H12.8735L13.8035 21.165L13.8785 21.63L13.9685 21.165L14.9435 18.135H16.2785L14.5385 23.265V27H13.0985ZM17.4894 27V18.135H19.2594L20.7444 24.435L22.2444 18.135H23.9994V27H22.7244V20.16L21.2394 27H20.2494L18.7644 20.16V27H17.4894Z" fill="#A54040"/></svg>